<mxfile host="app.diagrams.net" agent="Mozilla/5.0 (Windows NT 10.0; Win64; x64) AppleWebKit/537.36 (KHTML, like Gecko) Chrome/129.0.0.0 Safari/537.36" version="24.7.16">
  <diagram name="Сторінка-1" id="DU2L5yOFa8gstWofdo1j">
    <mxGraphModel dx="836" dy="425" grid="1" gridSize="10" guides="1" tooltips="1" connect="1" arrows="1" fold="1" page="1" pageScale="1" pageWidth="3300" pageHeight="4681" math="0" shadow="0">
      <root>
        <mxCell id="0" />
        <mxCell id="1" parent="0" />
        <mxCell id="OmA0JLYh3ZpWCUpSB6tK-18" value="" style="rounded=0;whiteSpace=wrap;html=1;fillColor=none;" vertex="1" parent="1">
          <mxGeometry x="180" y="50" width="800" height="410" as="geometry" />
        </mxCell>
        <mxCell id="OmA0JLYh3ZpWCUpSB6tK-5" style="edgeStyle=orthogonalEdgeStyle;rounded=0;orthogonalLoop=1;jettySize=auto;html=1;entryX=0;entryY=0.5;entryDx=0;entryDy=0;" edge="1" parent="1" source="OmA0JLYh3ZpWCUpSB6tK-1" target="OmA0JLYh3ZpWCUpSB6tK-4">
          <mxGeometry relative="1" as="geometry" />
        </mxCell>
        <mxCell id="OmA0JLYh3ZpWCUpSB6tK-1" value="Користувач" style="shape=umlActor;verticalLabelPosition=bottom;verticalAlign=top;html=1;outlineConnect=0;" vertex="1" parent="1">
          <mxGeometry x="80" y="80" width="30" height="60" as="geometry" />
        </mxCell>
        <mxCell id="OmA0JLYh3ZpWCUpSB6tK-4" value="Головне меню" style="ellipse;whiteSpace=wrap;html=1;" vertex="1" parent="1">
          <mxGeometry x="210" y="80" width="110" height="60" as="geometry" />
        </mxCell>
        <mxCell id="OmA0JLYh3ZpWCUpSB6tK-6" value="Інформація про програму" style="ellipse;whiteSpace=wrap;html=1;" vertex="1" parent="1">
          <mxGeometry x="410" y="75" width="110" height="70" as="geometry" />
        </mxCell>
        <mxCell id="OmA0JLYh3ZpWCUpSB6tK-8" value="&amp;lt;&amp;lt;extend&amp;gt;&amp;gt;" style="html=1;verticalAlign=bottom;endArrow=open;dashed=1;endSize=8;curved=0;rounded=0;exitX=0;exitY=0.5;exitDx=0;exitDy=0;entryX=1;entryY=0.5;entryDx=0;entryDy=0;" edge="1" parent="1" source="OmA0JLYh3ZpWCUpSB6tK-6" target="OmA0JLYh3ZpWCUpSB6tK-4">
          <mxGeometry relative="1" as="geometry">
            <mxPoint x="450" y="230" as="sourcePoint" />
            <mxPoint x="370" y="230" as="targetPoint" />
          </mxGeometry>
        </mxCell>
        <mxCell id="OmA0JLYh3ZpWCUpSB6tK-9" value="Створити порожню таблицю" style="ellipse;whiteSpace=wrap;html=1;" vertex="1" parent="1">
          <mxGeometry x="210" y="190" width="115" height="60" as="geometry" />
        </mxCell>
        <mxCell id="OmA0JLYh3ZpWCUpSB6tK-11" value="&amp;lt;&amp;lt;include&amp;gt;&amp;gt;" style="html=1;verticalAlign=bottom;endArrow=open;dashed=1;endSize=8;curved=0;rounded=0;exitX=0.5;exitY=1;exitDx=0;exitDy=0;entryX=0.5;entryY=0;entryDx=0;entryDy=0;" edge="1" parent="1" source="OmA0JLYh3ZpWCUpSB6tK-4" target="OmA0JLYh3ZpWCUpSB6tK-9">
          <mxGeometry relative="1" as="geometry">
            <mxPoint x="450" y="230" as="sourcePoint" />
            <mxPoint x="370" y="230" as="targetPoint" />
          </mxGeometry>
        </mxCell>
        <mxCell id="OmA0JLYh3ZpWCUpSB6tK-12" value="Вибрати клітинку" style="ellipse;whiteSpace=wrap;html=1;" vertex="1" parent="1">
          <mxGeometry x="550" y="170" width="120" height="50" as="geometry" />
        </mxCell>
        <mxCell id="OmA0JLYh3ZpWCUpSB6tK-13" value="&amp;lt;&amp;lt;extend&amp;gt;&amp;gt;" style="html=1;verticalAlign=bottom;endArrow=open;dashed=1;endSize=8;curved=0;rounded=0;exitX=0;exitY=0.5;exitDx=0;exitDy=0;entryX=1;entryY=0.5;entryDx=0;entryDy=0;" edge="1" parent="1" source="OmA0JLYh3ZpWCUpSB6tK-12" target="OmA0JLYh3ZpWCUpSB6tK-19">
          <mxGeometry relative="1" as="geometry">
            <mxPoint x="460" y="230" as="sourcePoint" />
            <mxPoint x="470" y="210" as="targetPoint" />
          </mxGeometry>
        </mxCell>
        <mxCell id="OmA0JLYh3ZpWCUpSB6tK-14" value="Додати рядок" style="ellipse;whiteSpace=wrap;html=1;" vertex="1" parent="1">
          <mxGeometry x="560" y="250" width="105" height="50" as="geometry" />
        </mxCell>
        <mxCell id="OmA0JLYh3ZpWCUpSB6tK-15" value="&amp;lt;&amp;lt;extend&amp;gt;&amp;gt;" style="html=1;verticalAlign=bottom;endArrow=open;dashed=1;endSize=8;curved=0;rounded=0;exitX=0;exitY=0.5;exitDx=0;exitDy=0;entryX=1;entryY=1;entryDx=0;entryDy=0;" edge="1" parent="1" source="OmA0JLYh3ZpWCUpSB6tK-14" target="OmA0JLYh3ZpWCUpSB6tK-19">
          <mxGeometry relative="1" as="geometry">
            <mxPoint x="410" y="215" as="sourcePoint" />
            <mxPoint x="332" y="240" as="targetPoint" />
          </mxGeometry>
        </mxCell>
        <mxCell id="OmA0JLYh3ZpWCUpSB6tK-16" value="Додати стовпчик" style="ellipse;whiteSpace=wrap;html=1;" vertex="1" parent="1">
          <mxGeometry x="455" y="310" width="105" height="50" as="geometry" />
        </mxCell>
        <mxCell id="OmA0JLYh3ZpWCUpSB6tK-17" value="&amp;lt;&amp;lt;extend&amp;gt;&amp;gt;" style="html=1;verticalAlign=bottom;endArrow=open;dashed=1;endSize=8;curved=0;rounded=0;exitX=0.5;exitY=0;exitDx=0;exitDy=0;" edge="1" parent="1" source="OmA0JLYh3ZpWCUpSB6tK-16" target="OmA0JLYh3ZpWCUpSB6tK-19">
          <mxGeometry x="-0.3676" y="7" relative="1" as="geometry">
            <mxPoint x="420" y="295" as="sourcePoint" />
            <mxPoint x="316" y="261" as="targetPoint" />
            <mxPoint x="1" as="offset" />
          </mxGeometry>
        </mxCell>
        <mxCell id="OmA0JLYh3ZpWCUpSB6tK-19" value="Таблиця" style="ellipse;whiteSpace=wrap;html=1;" vertex="1" parent="1">
          <mxGeometry x="402.5" y="210" width="80" height="50" as="geometry" />
        </mxCell>
        <mxCell id="OmA0JLYh3ZpWCUpSB6tK-20" value="&amp;lt;&amp;lt;include&amp;gt;&amp;gt;" style="html=1;verticalAlign=bottom;endArrow=open;dashed=1;endSize=8;curved=0;rounded=0;exitX=1;exitY=0.5;exitDx=0;exitDy=0;entryX=0;entryY=0.5;entryDx=0;entryDy=0;" edge="1" parent="1" source="OmA0JLYh3ZpWCUpSB6tK-9" target="OmA0JLYh3ZpWCUpSB6tK-19">
          <mxGeometry relative="1" as="geometry">
            <mxPoint x="360" y="320" as="sourcePoint" />
            <mxPoint x="280" y="320" as="targetPoint" />
          </mxGeometry>
        </mxCell>
        <mxCell id="OmA0JLYh3ZpWCUpSB6tK-21" value="Клітинка" style="ellipse;whiteSpace=wrap;html=1;" vertex="1" parent="1">
          <mxGeometry x="770" y="160" width="100" height="60" as="geometry" />
        </mxCell>
        <mxCell id="OmA0JLYh3ZpWCUpSB6tK-22" value="&amp;lt;&amp;lt;include&amp;gt;&amp;gt;" style="html=1;verticalAlign=bottom;endArrow=open;dashed=1;endSize=8;curved=0;rounded=0;exitX=1;exitY=0.5;exitDx=0;exitDy=0;entryX=0;entryY=0.5;entryDx=0;entryDy=0;" edge="1" parent="1" source="OmA0JLYh3ZpWCUpSB6tK-12" target="OmA0JLYh3ZpWCUpSB6tK-21">
          <mxGeometry x="-0.0786" y="2" relative="1" as="geometry">
            <mxPoint x="640" y="150" as="sourcePoint" />
            <mxPoint x="720" y="155" as="targetPoint" />
            <mxPoint as="offset" />
          </mxGeometry>
        </mxCell>
        <mxCell id="OmA0JLYh3ZpWCUpSB6tK-23" value="Ввести вираз" style="ellipse;whiteSpace=wrap;html=1;" vertex="1" parent="1">
          <mxGeometry x="700" y="260" width="110" height="50" as="geometry" />
        </mxCell>
        <mxCell id="OmA0JLYh3ZpWCUpSB6tK-24" value="&amp;lt;&amp;lt;extend&amp;gt;&amp;gt;" style="html=1;verticalAlign=bottom;endArrow=open;dashed=1;endSize=8;curved=0;rounded=0;exitX=0.5;exitY=0;exitDx=0;exitDy=0;entryX=0.5;entryY=1;entryDx=0;entryDy=0;" edge="1" parent="1" source="OmA0JLYh3ZpWCUpSB6tK-23" target="OmA0JLYh3ZpWCUpSB6tK-21">
          <mxGeometry x="-0.1881" y="-3" relative="1" as="geometry">
            <mxPoint x="660" y="220" as="sourcePoint" />
            <mxPoint x="580" y="220" as="targetPoint" />
            <mxPoint as="offset" />
          </mxGeometry>
        </mxCell>
        <mxCell id="OmA0JLYh3ZpWCUpSB6tK-25" value="Ввести ціле значення" style="ellipse;whiteSpace=wrap;html=1;" vertex="1" parent="1">
          <mxGeometry x="850" y="260" width="110" height="50" as="geometry" />
        </mxCell>
        <mxCell id="OmA0JLYh3ZpWCUpSB6tK-26" value="&amp;lt;&amp;lt;extend&amp;gt;&amp;gt;" style="html=1;verticalAlign=bottom;endArrow=open;dashed=1;endSize=8;curved=0;rounded=0;exitX=0.5;exitY=0;exitDx=0;exitDy=0;entryX=0.739;entryY=0.915;entryDx=0;entryDy=0;entryPerimeter=0;" edge="1" parent="1" source="OmA0JLYh3ZpWCUpSB6tK-25" target="OmA0JLYh3ZpWCUpSB6tK-21">
          <mxGeometry x="-0.1881" y="-3" relative="1" as="geometry">
            <mxPoint x="765" y="240" as="sourcePoint" />
            <mxPoint x="800" y="190" as="targetPoint" />
            <mxPoint as="offset" />
          </mxGeometry>
        </mxCell>
        <mxCell id="OmA0JLYh3ZpWCUpSB6tK-27" value="- ПІБ виконавця проєкту&lt;br&gt;- Номер варіанту" style="shape=note;whiteSpace=wrap;html=1;backgroundOutline=1;darkOpacity=0.05;size=16;" vertex="1" parent="1">
          <mxGeometry x="570" y="70" width="120" height="80" as="geometry" />
        </mxCell>
        <mxCell id="OmA0JLYh3ZpWCUpSB6tK-28" value="" style="endArrow=none;dashed=1;html=1;rounded=0;exitX=1;exitY=0.5;exitDx=0;exitDy=0;entryX=-0.019;entryY=0.384;entryDx=0;entryDy=0;entryPerimeter=0;" edge="1" parent="1" source="OmA0JLYh3ZpWCUpSB6tK-6" target="OmA0JLYh3ZpWCUpSB6tK-27">
          <mxGeometry width="50" height="50" relative="1" as="geometry">
            <mxPoint x="530" y="220" as="sourcePoint" />
            <mxPoint x="580" y="170" as="targetPoint" />
          </mxGeometry>
        </mxCell>
        <mxCell id="OmA0JLYh3ZpWCUpSB6tK-29" value="Обчислити" style="ellipse;whiteSpace=wrap;html=1;" vertex="1" parent="1">
          <mxGeometry x="670" y="360" width="100" height="60" as="geometry" />
        </mxCell>
        <mxCell id="OmA0JLYh3ZpWCUpSB6tK-30" value="&amp;lt;&amp;lt;include&amp;gt;&amp;gt;" style="html=1;verticalAlign=bottom;endArrow=open;dashed=1;endSize=8;curved=0;rounded=0;exitX=0.296;exitY=0.952;exitDx=0;exitDy=0;exitPerimeter=0;entryX=0.593;entryY=-0.002;entryDx=0;entryDy=0;entryPerimeter=0;" edge="1" parent="1" source="OmA0JLYh3ZpWCUpSB6tK-23" target="OmA0JLYh3ZpWCUpSB6tK-29">
          <mxGeometry x="0.1731" y="-4" relative="1" as="geometry">
            <mxPoint x="520" y="270" as="sourcePoint" />
            <mxPoint x="440" y="270" as="targetPoint" />
            <mxPoint as="offset" />
          </mxGeometry>
        </mxCell>
        <mxCell id="OmA0JLYh3ZpWCUpSB6tK-31" value="Зберегти таблицю" style="ellipse;whiteSpace=wrap;html=1;" vertex="1" parent="1">
          <mxGeometry x="230" y="305" width="120" height="60" as="geometry" />
        </mxCell>
        <mxCell id="OmA0JLYh3ZpWCUpSB6tK-32" value="&amp;lt;&amp;lt;extend&amp;gt;&amp;gt;" style="html=1;verticalAlign=bottom;endArrow=open;dashed=1;endSize=8;curved=0;rounded=0;exitX=0.666;exitY=0.036;exitDx=0;exitDy=0;exitPerimeter=0;entryX=0;entryY=1;entryDx=0;entryDy=0;" edge="1" parent="1" source="OmA0JLYh3ZpWCUpSB6tK-31" target="OmA0JLYh3ZpWCUpSB6tK-19">
          <mxGeometry x="-0.25" relative="1" as="geometry">
            <mxPoint x="380" y="284.67" as="sourcePoint" />
            <mxPoint x="300" y="280" as="targetPoint" />
            <mxPoint as="offset" />
          </mxGeometry>
        </mxCell>
        <mxCell id="OmA0JLYh3ZpWCUpSB6tK-34" value="Формати:&lt;br&gt;&amp;nbsp;.csv&lt;div&gt;.xml&lt;/div&gt;" style="shape=note;whiteSpace=wrap;html=1;backgroundOutline=1;darkOpacity=0.05;size=18;" vertex="1" parent="1">
          <mxGeometry x="360" y="365" width="80" height="75" as="geometry" />
        </mxCell>
        <mxCell id="OmA0JLYh3ZpWCUpSB6tK-36" value="" style="endArrow=none;dashed=1;html=1;rounded=0;entryX=0.681;entryY=1.002;entryDx=0;entryDy=0;entryPerimeter=0;exitX=0;exitY=0;exitDx=0;exitDy=0;exitPerimeter=0;" edge="1" parent="1" source="OmA0JLYh3ZpWCUpSB6tK-34" target="OmA0JLYh3ZpWCUpSB6tK-31">
          <mxGeometry width="50" height="50" relative="1" as="geometry">
            <mxPoint x="250" y="440" as="sourcePoint" />
            <mxPoint x="300" y="390" as="targetPoint" />
          </mxGeometry>
        </mxCell>
      </root>
    </mxGraphModel>
  </diagram>
</mxfile>
